<?xml version="1.0" standalone="no"?>
<!DOCTYPE svg PUBLIC "-//W3C//DTD SVG 20010904//EN"
 "http://www.w3.org/TR/2001/REC-SVG-20010904/DTD/svg10.dtd">
<svg version="1.0" xmlns="http://www.w3.org/2000/svg"
 width="64.000000pt" height="64.000000pt" viewBox="0 0 64.000000 64.000000"
 preserveAspectRatio="xMidYMid meet">

<g transform="translate(0.000000,64.000000) scale(0.100000,-0.100000)"
fill="#000000" stroke="none">
<path d="M0 425 c0 -122 4 -215 9 -215 5 0 7 9 4 20 -3 11 0 20 6 20 5 0 8 7
5 15 -4 8 -2 15 4 15 6 0 8 9 5 20 -3 11 0 20 6 20 5 0 8 7 5 15 -4 8 -2 15 4
15 6 0 8 10 4 22 -4 15 -2 19 7 13 10 -5 11 -2 6 14 -3 11 -2 21 3 21 6 0 8
10 4 22 -4 15 -2 19 7 13 10 -5 11 -2 6 14 -3 11 -2 21 3 21 6 0 8 10 4 22 -4
15 -2 19 7 13 10 -5 11 -2 6 14 -3 11 -2 21 3 21 6 0 8 10 4 22 -4 16 -2 19 8
13 10 -6 12 -4 6 10 -4 11 -2 22 6 27 7 4 -18 8 -59 8 l-73 0 0 -215z"/>
<path d="M206 632 c5 -5 100 -35 212 -67 119 -35 201 -63 199 -69 -2 -6 -32
-110 -67 -231 -34 -121 -66 -223 -69 -228 -4 -4 -109 22 -233 58 -124 36 -231
65 -237 65 -7 0 -11 -29 -11 -80 l0 -80 320 0 320 0 0 320 -1 320 -221 0
c-122 0 -218 -4 -212 -8z"/>
<path d="M190 525 c-15 -18 -10 -45 13 -59 34 -22 73 27 47 59 -16 19 -44 19
-60 0z m48 -22 c-2 -10 -10 -18 -18 -18 -8 0 -16 8 -18 18 -2 12 3 17 18 17
15 0 20 -5 18 -17z"/>
<path d="M271 474 c-10 -41 -14 -45 -34 -40 -53 15 -77 18 -77 8 0 -5 20 -15
45 -21 51 -13 50 -10 31 -71 -14 -48 -18 -50 -85 -35 -50 12 -31 -12 21 -25
43 -12 43 -13 22 -87 -4 -14 -2 -23 5 -23 6 0 16 20 22 45 6 25 14 45 18 45 3
0 26 -6 51 -14 48 -14 53 -26 35 -88 -4 -18 -3 -28 4 -28 6 0 16 21 22 46 13
49 12 49 87 28 13 -4 22 -2 22 5 0 6 -21 16 -46 22 -30 8 -43 16 -40 25 3 7
10 32 16 54 12 45 13 45 88 24 13 -4 22 -2 22 5 0 6 -21 16 -46 22 -40 10 -45
15 -40 33 15 52 18 76 8 76 -5 0 -15 -21 -21 -46 -8 -32 -16 -44 -26 -40 -7 2
-32 10 -55 16 -36 10 -41 14 -36 33 15 53 18 77 8 77 -5 0 -15 -21 -21 -46z
m53 -86 c22 -6 45 -15 49 -18 8 -7 -10 -87 -22 -102 -4 -4 -30 0 -59 8 -37 11
-52 20 -48 29 3 8 10 32 16 54 12 46 9 45 64 29z"/>
<path d="M293 350 c3 -11 1 -20 -4 -20 -5 0 -9 -5 -9 -11 0 -6 7 -8 15 -5 9 3
18 -1 21 -9 4 -8 10 -13 15 -10 4 3 6 12 3 19 -3 8 -1 17 5 21 19 11 12 27 -9
20 -11 -4 -20 -2 -20 4 0 6 -5 11 -11 11 -6 0 -9 -9 -6 -20z"/>
<path d="M328 499 c-44 -25 -3 -93 42 -69 26 14 26 56 1 70 -23 12 -22 12 -43
-1z m42 -32 c0 -19 -10 -27 -26 -20 -21 8 -17 33 6 33 11 0 20 -6 20 -13z"/>
<path d="M460 448 c0 -16 -5 -28 -11 -28 -5 0 -8 -4 -4 -10 3 -5 12 -7 19 -4
8 3 17 1 21 -5 10 -17 25 -13 19 4 -4 8 0 22 7 31 12 14 11 16 -6 12 -11 -2
-25 3 -32 12 -11 13 -12 11 -13 -12z"/>
<path d="M416 324 c-9 -8 -16 -22 -16 -29 0 -13 26 -45 36 -45 14 0 42 21 48
35 6 15 -25 55 -43 55 -5 0 -17 -7 -25 -16z m44 -27 c0 -19 -10 -27 -26 -20
-21 8 -17 33 6 33 11 0 20 -6 20 -13z"/>
<path d="M123 255 c4 -8 2 -17 -3 -20 -18 -11 -10 -26 10 -20 11 4 20 2 20 -4
0 -6 5 -11 11 -11 6 0 8 9 4 20 -4 11 -2 20 4 20 6 0 11 5 11 11 0 6 -7 9 -15
6 -8 -4 -17 -2 -20 3 -10 16 -28 11 -22 -5z"/>
<path d="M240 220 c-24 -44 38 -83 70 -45 10 12 10 21 2 40 -14 31 -56 34 -72
5z m58 -17 c5 -17 -26 -29 -40 -15 -6 6 -7 15 -3 22 9 14 37 9 43 -7z"/>
</g>
</svg>
